<mxfile host="app.diagrams.net" agent="Mozilla/5.0 (Windows NT 10.0; Win64; x64) AppleWebKit/537.36 (KHTML, like Gecko) Chrome/136.0.0.0 Safari/537.36" version="27.0.9">
  <diagram id="C5RBs43oDa-KdzZeNtuy" name="Page-1">
    <mxGraphModel dx="1489" dy="753" grid="1" gridSize="10" guides="1" tooltips="1" connect="1" arrows="1" fold="1" page="1" pageScale="1" pageWidth="827" pageHeight="1169" background="#ffffff" math="0" shadow="0">
      <root>
        <mxCell id="WIyWlLk6GJQsqaUBKTNV-0" />
        <mxCell id="WIyWlLk6GJQsqaUBKTNV-1" parent="WIyWlLk6GJQsqaUBKTNV-0" />
        <mxCell id="spUuWAYfSazl-ySbX_Lw-0" value="Hotel&amp;nbsp;" style="rounded=1;whiteSpace=wrap;html=1;fontSize=16;labelBackgroundColor=none;fillColor=#09555B;strokeColor=#BAC8D3;fontColor=#EEEEEE;fontStyle=1" vertex="1" parent="WIyWlLk6GJQsqaUBKTNV-1">
          <mxGeometry x="40" y="40" width="220" height="40" as="geometry" />
        </mxCell>
        <mxCell id="spUuWAYfSazl-ySbX_Lw-1" value="name :String&amp;nbsp;&lt;div&gt;address: String&amp;nbsp;&lt;/div&gt;" style="rounded=1;whiteSpace=wrap;html=1;fontSize=16;labelBackgroundColor=none;fillColor=#09555B;strokeColor=#BAC8D3;fontColor=#EEEEEE;fontStyle=1" vertex="1" parent="WIyWlLk6GJQsqaUBKTNV-1">
          <mxGeometry x="40" y="80" width="220" height="60" as="geometry" />
        </mxCell>
        <mxCell id="spUuWAYfSazl-ySbX_Lw-2" value="addRoom(room:Room)&lt;div&gt;getAvailableRooms()&lt;/div&gt;&lt;div&gt;List &amp;lt; Room&lt;/div&gt;" style="rounded=1;whiteSpace=wrap;html=1;fontSize=16;labelBackgroundColor=none;fillColor=#09555B;strokeColor=#BAC8D3;fontColor=#EEEEEE;fontStyle=1" vertex="1" parent="WIyWlLk6GJQsqaUBKTNV-1">
          <mxGeometry x="40" y="140" width="220" height="60" as="geometry" />
        </mxCell>
        <mxCell id="spUuWAYfSazl-ySbX_Lw-4" value="Room&amp;nbsp;" style="rounded=1;whiteSpace=wrap;html=1;fontSize=16;labelBackgroundColor=none;fillColor=#09555B;strokeColor=#BAC8D3;fontColor=#EEEEEE;fontStyle=1" vertex="1" parent="WIyWlLk6GJQsqaUBKTNV-1">
          <mxGeometry x="40" y="280" width="220" height="40" as="geometry" />
        </mxCell>
        <mxCell id="spUuWAYfSazl-ySbX_Lw-5" value="roomNumber : int&amp;nbsp;&lt;div&gt;roomType : RoomType&amp;nbsp;&lt;/div&gt;" style="rounded=1;whiteSpace=wrap;html=1;fontSize=16;labelBackgroundColor=none;fillColor=#09555B;strokeColor=#BAC8D3;fontColor=#EEEEEE;fontStyle=1" vertex="1" parent="WIyWlLk6GJQsqaUBKTNV-1">
          <mxGeometry x="40" y="320" width="220" height="60" as="geometry" />
        </mxCell>
        <mxCell id="spUuWAYfSazl-ySbX_Lw-6" value="checkAvailability(): bool&amp;nbsp;&lt;div&gt;bookRoom()&lt;/div&gt;" style="rounded=1;whiteSpace=wrap;html=1;fontSize=16;labelBackgroundColor=none;fillColor=#09555B;strokeColor=#BAC8D3;fontColor=#EEEEEE;fontStyle=1" vertex="1" parent="WIyWlLk6GJQsqaUBKTNV-1">
          <mxGeometry x="40" y="380" width="220" height="60" as="geometry" />
        </mxCell>
        <mxCell id="spUuWAYfSazl-ySbX_Lw-7" value="RoomType&amp;nbsp;" style="rounded=1;whiteSpace=wrap;html=1;fontSize=16;labelBackgroundColor=none;fillColor=#09555B;strokeColor=#BAC8D3;fontColor=#EEEEEE;fontStyle=1" vertex="1" parent="WIyWlLk6GJQsqaUBKTNV-1">
          <mxGeometry x="40" y="500" width="220" height="40" as="geometry" />
        </mxCell>
        <mxCell id="spUuWAYfSazl-ySbX_Lw-8" value="name : String&lt;div&gt;price : double&amp;nbsp;&lt;/div&gt;" style="rounded=1;whiteSpace=wrap;html=1;fontSize=16;labelBackgroundColor=none;fillColor=#09555B;strokeColor=#BAC8D3;fontColor=#EEEEEE;fontStyle=1" vertex="1" parent="WIyWlLk6GJQsqaUBKTNV-1">
          <mxGeometry x="40" y="540" width="220" height="60" as="geometry" />
        </mxCell>
        <mxCell id="spUuWAYfSazl-ySbX_Lw-9" value="" style="shape=flexArrow;endArrow=classic;html=1;rounded=1;fontSize=16;labelBackgroundColor=none;fontColor=default;strokeColor=#0B4D6A;fontStyle=1" edge="1" parent="WIyWlLk6GJQsqaUBKTNV-1">
          <mxGeometry width="50" height="50" relative="1" as="geometry">
            <mxPoint x="160" y="270" as="sourcePoint" />
            <mxPoint x="160" y="210" as="targetPoint" />
          </mxGeometry>
        </mxCell>
        <mxCell id="spUuWAYfSazl-ySbX_Lw-10" value="" style="endArrow=classic;html=1;rounded=1;shape=flexArrow;exitX=0.545;exitY=0;exitDx=0;exitDy=0;exitPerimeter=0;fontSize=16;labelBackgroundColor=none;fontColor=default;strokeColor=#0B4D6A;fontStyle=1" edge="1" parent="WIyWlLk6GJQsqaUBKTNV-1" source="spUuWAYfSazl-ySbX_Lw-7">
          <mxGeometry width="50" height="50" relative="1" as="geometry">
            <mxPoint x="140" y="470" as="sourcePoint" />
            <mxPoint x="160" y="440" as="targetPoint" />
          </mxGeometry>
        </mxCell>
        <mxCell id="spUuWAYfSazl-ySbX_Lw-11" value="Reservation" style="rounded=1;whiteSpace=wrap;html=1;fontSize=16;labelBackgroundColor=none;fillColor=#09555B;strokeColor=#BAC8D3;fontColor=#EEEEEE;fontStyle=1" vertex="1" parent="WIyWlLk6GJQsqaUBKTNV-1">
          <mxGeometry x="310" y="120" width="220" height="40" as="geometry" />
        </mxCell>
        <mxCell id="spUuWAYfSazl-ySbX_Lw-12" value="reservationid:int&lt;div&gt;startDate : Date&amp;nbsp;&lt;/div&gt;&lt;div&gt;endDate : Date&amp;nbsp;&lt;/div&gt;" style="rounded=1;whiteSpace=wrap;html=1;fontSize=16;labelBackgroundColor=none;fillColor=#09555B;strokeColor=#BAC8D3;fontColor=#EEEEEE;fontStyle=1" vertex="1" parent="WIyWlLk6GJQsqaUBKTNV-1">
          <mxGeometry x="310" y="160" width="220" height="60" as="geometry" />
        </mxCell>
        <mxCell id="spUuWAYfSazl-ySbX_Lw-13" value="calculateTotalCost(): double&amp;nbsp;" style="rounded=1;whiteSpace=wrap;html=1;fontSize=16;labelBackgroundColor=none;fillColor=#09555B;strokeColor=#BAC8D3;fontColor=#EEEEEE;fontStyle=1" vertex="1" parent="WIyWlLk6GJQsqaUBKTNV-1">
          <mxGeometry x="310" y="220" width="220" height="60" as="geometry" />
        </mxCell>
        <mxCell id="spUuWAYfSazl-ySbX_Lw-14" value="Reservtion" style="rounded=1;whiteSpace=wrap;html=1;fontSize=16;labelBackgroundColor=none;fillColor=#09555B;strokeColor=#BAC8D3;fontColor=#EEEEEE;fontStyle=1" vertex="1" parent="WIyWlLk6GJQsqaUBKTNV-1">
          <mxGeometry x="310" y="400" width="220" height="40" as="geometry" />
        </mxCell>
        <mxCell id="spUuWAYfSazl-ySbX_Lw-15" value="amount : double paymentMethod pay()" style="rounded=1;whiteSpace=wrap;html=1;fontSize=16;labelBackgroundColor=none;fillColor=#09555B;strokeColor=#BAC8D3;fontColor=#EEEEEE;fontStyle=1" vertex="1" parent="WIyWlLk6GJQsqaUBKTNV-1">
          <mxGeometry x="310" y="440" width="220" height="60" as="geometry" />
        </mxCell>
        <mxCell id="spUuWAYfSazl-ySbX_Lw-16" value="Guest" style="rounded=1;whiteSpace=wrap;html=1;fontSize=16;labelBackgroundColor=none;fillColor=#09555B;strokeColor=#BAC8D3;fontColor=#EEEEEE;" vertex="1" parent="WIyWlLk6GJQsqaUBKTNV-1">
          <mxGeometry x="580" y="150" width="220" height="40" as="geometry" />
        </mxCell>
        <mxCell id="spUuWAYfSazl-ySbX_Lw-17" value="name : String&amp;nbsp;&lt;div&gt;email: String&amp;nbsp;&lt;/div&gt;" style="rounded=1;whiteSpace=wrap;html=1;fontSize=16;labelBackgroundColor=none;fillColor=#09555B;strokeColor=#BAC8D3;fontColor=#EEEEEE;" vertex="1" parent="WIyWlLk6GJQsqaUBKTNV-1">
          <mxGeometry x="580" y="190" width="220" height="60" as="geometry" />
        </mxCell>
        <mxCell id="spUuWAYfSazl-ySbX_Lw-18" value="Payment&amp;nbsp;" style="rounded=1;whiteSpace=wrap;html=1;fontSize=16;labelBackgroundColor=none;fillColor=#09555B;strokeColor=#BAC8D3;fontColor=#EEEEEE;" vertex="1" parent="WIyWlLk6GJQsqaUBKTNV-1">
          <mxGeometry x="590" y="340" width="220" height="40" as="geometry" />
        </mxCell>
        <mxCell id="spUuWAYfSazl-ySbX_Lw-19" value="amount : double paymentMethodpay()&amp;nbsp;" style="rounded=1;whiteSpace=wrap;html=1;fontSize=16;labelBackgroundColor=none;fillColor=#09555B;strokeColor=#BAC8D3;fontColor=#EEEEEE;" vertex="1" parent="WIyWlLk6GJQsqaUBKTNV-1">
          <mxGeometry x="590" y="380" width="220" height="60" as="geometry" />
        </mxCell>
        <mxCell id="spUuWAYfSazl-ySbX_Lw-21" value="" style="shape=flexArrow;endArrow=classic;html=1;rounded=1;edgeStyle=elbowEdgeStyle;endWidth=17.647058823529413;endSize=6.152941176470589;entryX=0;entryY=1;entryDx=0;entryDy=0;fontSize=16;labelBackgroundColor=none;fontColor=default;strokeColor=#0B4D6A;fontStyle=1" edge="1" parent="WIyWlLk6GJQsqaUBKTNV-1" target="spUuWAYfSazl-ySbX_Lw-11">
          <mxGeometry width="50" height="50" relative="1" as="geometry">
            <mxPoint x="260" y="80" as="sourcePoint" />
            <mxPoint x="420" y="110" as="targetPoint" />
          </mxGeometry>
        </mxCell>
        <mxCell id="spUuWAYfSazl-ySbX_Lw-22" value="" style="shape=flexArrow;endArrow=classic;html=1;rounded=1;exitX=0;exitY=0.75;exitDx=0;exitDy=0;entryX=1;entryY=0.25;entryDx=0;entryDy=0;width=8.23529411764706;endSize=7.729411764705883;fontSize=16;labelBackgroundColor=none;fontColor=default;strokeColor=#0B4D6A;fontStyle=1" edge="1" parent="WIyWlLk6GJQsqaUBKTNV-1" source="spUuWAYfSazl-ySbX_Lw-18" target="spUuWAYfSazl-ySbX_Lw-13">
          <mxGeometry width="50" height="50" relative="1" as="geometry">
            <mxPoint x="530" y="390" as="sourcePoint" />
            <mxPoint x="560" y="160" as="targetPoint" />
            <Array as="points">
              <mxPoint x="560" y="370" />
              <mxPoint x="560" y="240" />
            </Array>
          </mxGeometry>
        </mxCell>
        <mxCell id="spUuWAYfSazl-ySbX_Lw-24" value="" style="shape=flexArrow;endArrow=classic;html=1;rounded=1;entryX=0.5;entryY=1;entryDx=0;entryDy=0;fontSize=16;labelBackgroundColor=none;fontColor=default;strokeColor=#0B4D6A;fontStyle=1" edge="1" parent="WIyWlLk6GJQsqaUBKTNV-1" target="spUuWAYfSazl-ySbX_Lw-17">
          <mxGeometry width="50" height="50" relative="1" as="geometry">
            <mxPoint x="690" y="330" as="sourcePoint" />
            <mxPoint x="690" y="290" as="targetPoint" />
          </mxGeometry>
        </mxCell>
        <mxCell id="spUuWAYfSazl-ySbX_Lw-25" value="" style="shape=flexArrow;endArrow=classic;html=1;rounded=1;entryX=1;entryY=0.5;entryDx=0;entryDy=0;exitX=0.451;exitY=1.047;exitDx=0;exitDy=0;exitPerimeter=0;fontSize=16;labelBackgroundColor=none;fontColor=default;strokeColor=#0B4D6A;fontStyle=1" edge="1" parent="WIyWlLk6GJQsqaUBKTNV-1" source="spUuWAYfSazl-ySbX_Lw-19" target="spUuWAYfSazl-ySbX_Lw-15">
          <mxGeometry width="50" height="50" relative="1" as="geometry">
            <mxPoint x="730" y="470" as="sourcePoint" />
            <mxPoint x="710" y="450" as="targetPoint" />
            <Array as="points">
              <mxPoint x="690" y="470" />
            </Array>
          </mxGeometry>
        </mxCell>
      </root>
    </mxGraphModel>
  </diagram>
</mxfile>
